<svg id="Layer_1" data-name="Layer 1" xmlns="http://www.w3.org/2000/svg" viewBox="0 0 51.96 21.34">
    <defs>
        <style>.cls-1{fill:#fff;}</style>
    </defs>
    <title>ZB logo white small web</title>
    <path class="cls-1" d="M31.9,13.66v-6h-2v5.58A6.24,6.24,0,0,1,31.9,13.66Z" transform="translate(-6.99 -7.66)"/>
    <path class="cls-1"
          d="M31.76,14.93l-.22.16a1.66,1.66,0,0,0-.21.16c-.14.11-.29.2-.43.32l-.11.11a.08.08,0,0,1,0,.07.14.14,0,0,1,0,.06.15.15,0,0,1-.07,0l-.1,0h-.09c-.06,0-.35-.07-.69-.1v2.62H31.7l.18-.78V14.84Z"
          transform="translate(-6.99 -7.66)"/>
    <path class="cls-1"
          d="M34,15.84a2.9,2.9,0,0,0-1.58,1.22,2.42,2.42,0,0,1,.32,1.32,2.83,2.83,0,1,1-2.9-2.83,3.12,3.12,0,0,1,.55,0A4.88,4.88,0,0,1,32,14a4.41,4.41,0,0,0-2.11-.5,4.83,4.83,0,1,0,4.83,4.83A4.36,4.36,0,0,0,34,15.84Z"
          transform="translate(-6.99 -7.66)"/>
    <rect class="cls-1" x="18.04" y="10.67" width="2.04" height="10.67"/>
    <path class="cls-1"
          d="M34.67,13.47a4.75,4.75,0,0,0-2.43.66.41.41,0,0,1-.11.07l-.25.16-.08.06a5.18,5.18,0,0,0-.89.86l-.37.52a4.84,4.84,0,0,0-.7,2.5,4.44,4.44,0,0,0,.76,2.57,2.73,2.73,0,0,0,1.6-1.22,2.49,2.49,0,0,1-.32-1.3,2.83,2.83,0,1,1,2.83,2.83,2.36,2.36,0,0,1-.65-.07,4.1,4.1,0,0,1-1.52,1.52,4.6,4.6,0,0,0,2.13.49,4.83,4.83,0,0,0,0-9.65Z"
          transform="translate(-6.99 -7.66)"/>
    <path class="cls-1" d="M32.73,18.39a2.83,2.83,0,0,1-5.66,0H25a4.83,4.83,0,0,0,9.65,0Z" transform="translate(-6.99 -7.66)"/>
    <path class="cls-1" d="M7.61,14h6.91l-4,7.11h3.82V23H7l4.07-7.1H7.61Z" transform="translate(-6.99 -7.66)"/>
    <path class="cls-1"
          d="M24.33,19.12H17.06a2.48,2.48,0,0,0,.84,1.53,2.65,2.65,0,0,0,1.75.57,3,3,0,0,0,2.18-.89l1.91.89A4.5,4.5,0,0,1,22,22.72a5.4,5.4,0,0,1-2.36.49,4.68,4.68,0,0,1-3.46-1.34,4.58,4.58,0,0,1-1.34-3.36,4.75,4.75,0,0,1,1.33-3.43,4.47,4.47,0,0,1,3.34-1.36A4.64,4.64,0,0,1,23,15.08a4.93,4.93,0,0,1,1.33,3.61Zm-2.26-1.79a2.24,2.24,0,0,0-.88-1.22,2.58,2.58,0,0,0-1.54-.47,2.68,2.68,0,0,0-1.66.53,3,3,0,0,0-.83,1.16Z"
          transform="translate(-6.99 -7.66)"/>
    <path class="cls-1"
          d="M49.63,19.08H42.35a2.39,2.39,0,0,0,.85,1.53,2.6,2.6,0,0,0,1.74.57,3,3,0,0,0,2.18-.89l1.91.9a4.67,4.67,0,0,1-1.71,1.5,5.37,5.37,0,0,1-2.36.48,4.64,4.64,0,0,1-3.46-1.34,4.54,4.54,0,0,1-1.33-3.35,4.7,4.7,0,0,1,1.33-3.43,4.45,4.45,0,0,1,3.33-1.36,4.64,4.64,0,0,1,3.47,1.36,4.92,4.92,0,0,1,1.33,3.6ZM47.36,17.3a2.3,2.3,0,0,0-.88-1.23A2.59,2.59,0,0,0,45,15.6a2.75,2.75,0,0,0-1.67.53,3.09,3.09,0,0,0-.83,1.17Z"
          transform="translate(-6.99 -7.66)"/>
    <path class="cls-1"
          d="M51,13.92h2.26v.92a5.58,5.58,0,0,1,1.4-.9,3.32,3.32,0,0,1,1.28-.25,3.09,3.09,0,0,1,2.27.93A3.21,3.21,0,0,1,59,17v6H56.71V19a10.66,10.66,0,0,0-.14-2.15,1.47,1.47,0,0,0-.51-.8,1.37,1.37,0,0,0-.89-.28,1.65,1.65,0,0,0-1.18.46,2.55,2.55,0,0,0-.68,1.27,10.85,10.85,0,0,0-.1,1.83v3.62H51Z"
          transform="translate(-6.99 -7.66)"/>
</svg>