<svg id="Layer_1" data-name="Layer 1" xmlns="http://www.w3.org/2000/svg" viewBox="0 0 435.02 178.68"><defs><style>.cls-1{fill:#6097b0;}.cls-2{fill:#3c5573;}</style></defs><title>Zepbenlogoweb</title><path class="cls-1" d="M411.81,258.3V208.08H394.72v46.73A55.48,55.48,0,0,1,411.81,258.3Z" transform="translate(-203.25 -208.08)"/><path class="cls-1" d="M410.66,269c-.63.44-1.28.86-1.92,1.3s-1.15.9-1.72,1.36c-1.17.92-2.44,1.66-3.56,2.66-.28.25-.61.63-1,1a.73.73,0,0,1,.22.52.75.75,0,0,1-.22.53.73.73,0,0,1-.53.22,8.46,8.46,0,0,1-.88-.1l-.7-.14c-.54-.06-3-.57-5.8-.82v21.94h15.54l1.55-6.54V268.23C411.33,268.49,411,268.75,410.66,269Z" transform="translate(-203.25 -208.08)"/><path class="cls-2" d="M429.35,276.55c-4.77,1.35-10.75,5.77-13.2,10.22a20.29,20.29,0,0,1,2.65,11,23.7,23.7,0,1,1-24.29-23.66,31,31,0,0,1,4.65.23c2.15-3.43,6.66-9.44,13.2-13.19A36.94,36.94,0,0,0,394.72,257a40.4,40.4,0,1,0,40.4,40.4C435.12,289.42,433.37,282.82,429.35,276.55Z" transform="translate(-203.25 -208.08)"/><rect class="cls-2" x="151.07" y="89.34" width="17.09" height="89.34"/><path class="cls-1" d="M435,256.78a40.14,40.14,0,0,0-20.32,5.5,7,7,0,0,1-.95.56c-.69.43-1.37.88-2,1.35l-.68.49a41,41,0,0,0-7.5,7.22c-.3.5-3.06,4.39-3.1,4.38a40.24,40.24,0,0,0-5.82,20.89,37.68,37.68,0,0,0,6.3,21.51,22.67,22.67,0,0,0,13.47-10.22,20.83,20.83,0,0,1-2.68-10.9,23.7,23.7,0,1,1,23.7,23.7,21.9,21.9,0,0,1-5.47-.54c-3.56,6.3-7.75,9.42-12.71,12.74A38.59,38.59,0,0,0,435,337.57a40.4,40.4,0,1,0,0-80.79Z" transform="translate(-203.25 -208.08)"/><path class="cls-2" d="M418.78,297.92a23.7,23.7,0,0,1-47.39,0H354.31a40.39,40.39,0,0,0,80.77,0Z" transform="translate(-203.25 -208.08)"/><path class="cls-2" d="M208.46,260.78h57.82l-33.93,59.49h32v16H203.25l34.09-59.5H208.46Z" transform="translate(-203.25 -208.08)"/><path class="cls-2" d="M348.44,304H287.56a20.27,20.27,0,0,0,7.05,12.81q5.73,4.76,14.61,4.76a25.28,25.28,0,0,0,18.26-7.43l16,7.5a37.86,37.86,0,0,1-14.3,12.53q-8.34,4.06-19.79,4.06-17.78,0-28.95-11.21T269.24,299q0-17.29,11.14-28.71t27.94-11.42q17.83,0,29,11.42t11.17,30.17ZM329.49,289.1a19,19,0,0,0-7.4-10.27,21.49,21.49,0,0,0-12.83-4,22.7,22.7,0,0,0-13.91,4.44q-3.75,2.78-7,9.79Z" transform="translate(-203.25 -208.08)"/><path class="cls-1" d="M560.2,303.74H499.32a20.27,20.27,0,0,0,7.05,12.81q5.72,4.76,14.61,4.76a25.28,25.28,0,0,0,18.26-7.43l16,7.5a37.71,37.71,0,0,1-14.3,12.53Q532.58,338,521.12,338q-17.78,0-28.95-11.21T481,298.68q0-17.3,11.15-28.71t27.94-11.42q17.83,0,29,11.42t11.18,30.16Zm-19-14.92a19,19,0,0,0-7.41-10.28,21.51,21.51,0,0,0-12.83-4,22.67,22.67,0,0,0-13.9,4.44c-2.51,1.85-4.82,5.11-7,9.79Z" transform="translate(-203.25 -208.08)"/><path class="cls-1" d="M571.28,260.5h19v7.74a45.13,45.13,0,0,1,11.68-7.56,28.18,28.18,0,0,1,10.71-2.13,25.92,25.92,0,0,1,19.06,7.85q6.59,6.66,6.59,19.71V336H619.52V303q0-13.51-1.21-18a12.3,12.3,0,0,0-4.22-6.76,11.83,11.83,0,0,0-7.45-2.32,14,14,0,0,0-9.87,3.85,20.54,20.54,0,0,0-5.71,10.64q-.82,3.54-.83,15.32V336h-19Z" transform="translate(-203.25 -208.08)"/></svg>